<svg width="163" height="41" viewBox="0 0 163 41" fill="none" xmlns="http://www.w3.org/2000/svg">
<path d="M155.456 13.305V19.0552H151.664V13.305L144.837 4.97192H149.101L153.57 10.6401L158.019 4.97192H162.283L155.456 13.305Z" fill="#BED1DB"/>
<path d="M131.851 19.0552H128.048V4.97192H137.58C138.605 4.97192 139.473 5.07784 140.184 5.28967C140.901 5.5015 141.482 5.80216 141.926 6.19166C142.377 6.58115 142.702 7.05264 142.9 7.60613C143.105 8.15279 143.207 8.76437 143.207 9.44086C143.207 10.0353 143.122 10.5547 142.951 10.9988C142.787 11.443 142.562 11.8257 142.275 12.1468C141.994 12.4611 141.666 12.7276 141.291 12.9463C140.915 13.165 140.518 13.346 140.102 13.4895L144.714 19.0552H140.266L136.002 13.8688H131.851V19.0552ZM139.364 9.42036C139.364 9.14703 139.326 8.9147 139.251 8.72337C139.183 8.53204 139.06 8.37829 138.882 8.26212C138.704 8.13913 138.465 8.05029 138.164 7.99563C137.871 7.94096 137.502 7.91363 137.057 7.91363H131.851V10.9271H137.057C137.502 10.9271 137.871 10.8998 138.164 10.8451C138.465 10.7904 138.704 10.705 138.882 10.5888C139.06 10.4658 139.183 10.3087 139.251 10.1173C139.326 9.92602 139.364 9.69369 139.364 9.42036Z" fill="#BED1DB"/>
<path d="M120.176 16.3903H112.324L111.002 19.0552H106.759L114.128 4.97192H118.372L125.742 19.0552H121.498L120.176 16.3903ZM113.688 13.6433H118.833L116.271 8.45687L113.688 13.6433Z" fill="#BED1DB"/>
<path d="M101.173 8.03663V19.0552H97.3702V8.03663H91.3945V4.97192H107.159V8.03663H101.173Z" fill="#BED1DB"/>
<path d="M75.1997 19.0552V4.97192H89.4572V7.97513H79.1049V10.3018H88.9243V13.305H79.1049V16.052H89.6007V19.0552H75.1997Z" fill="#BED1DB"/>
<path d="M66.672 19.0552L57.1704 9.37936V19.0552L54.5 19L53.3677 4.97192H57.4984L67.0102 14.6888V4.97192H70.7924V19.0552H66.672Z" fill="#BED1DB"/>
<path d="M19.1865 19.0555V4.97217H22.9892V15.9703H33.2698V19.0555H19.1865Z" fill="#BED1DB"/>
<path d="M16.0294 9.77935C16.0294 10.4832 15.9269 11.1323 15.7219 11.7268C15.5169 12.3145 15.1855 12.8236 14.7276 13.254C14.2767 13.6777 13.689 14.0091 12.9647 14.2483C12.2403 14.4874 11.3589 14.607 10.3202 14.607H4.00631V19.0555H0.203613V4.97217H10.3202C11.3589 4.97217 12.2403 5.09175 12.9647 5.33091C13.689 5.56324 14.2767 5.89465 14.7276 6.32515C15.1855 6.74881 15.5169 7.25447 15.7219 7.84212C15.9269 8.42978 16.0294 9.07552 16.0294 9.77935ZM12.1857 9.84085C12.1857 9.51285 12.1379 9.23269 12.0422 9.00036C11.9534 8.76119 11.803 8.56645 11.5912 8.41612C11.3794 8.26579 11.1026 8.15645 10.761 8.08812C10.4193 8.01296 9.99905 7.97537 9.50022 7.97537H4.00631V11.6038H9.50022C9.99905 11.6038 10.4193 11.5765 10.761 11.5218C11.1026 11.4603 11.3794 11.3612 11.5912 11.2246C11.803 11.0811 11.9534 10.8966 12.0422 10.6711C12.1379 10.4456 12.1857 10.1688 12.1857 9.84085Z" fill="#BED1DB"/>
<path fill-rule="evenodd" clip-rule="evenodd" d="M57.8555 0.215332L57.8556 0.283615L57.908 0.269603C57.908 0.269603 58.0082 11.7021 58.0082 15.6275C58.0082 19.4584 56.1315 22.851 53.2472 24.9359C50.4572 27.9361 44.6254 33.5534 39.6688 36.1669C38.9938 36.401 37.1316 36.771 36.2859 35.0795C35.4401 33.388 36.5275 32.059 37.0108 31.6965C37.094 31.6341 37.3207 31.4748 37.6439 31.2477L37.6441 31.2476C39.0935 30.2294 42.4825 27.8485 43.5785 26.7224C42.4506 26.4231 41.3909 25.9564 40.4275 25.3505C38.8127 26.7255 35.1719 29.606 31.9363 31.4549C28.5533 33.388 21.9082 35.5628 19.0085 36.4085C18.0016 36.4085 15.9396 35.9736 15.7463 34.2338C15.5046 32.059 17.0753 31.0924 17.5586 30.9716C18.0419 30.8508 25.412 28.7968 28.6741 26.8637C31.2479 25.3385 34.9733 22.5911 36.5821 21.3568C36.1792 20.6586 35.8476 19.9141 35.5974 19.1331C33.2879 21.0308 26.1286 24.9353 24.8508 25.6322L24.8507 25.6323L24.8507 25.6323L24.8078 25.6557C23.4788 26.3806 22.0289 25.7765 21.0623 24.5683C20.0958 23.3601 20.6999 21.3061 22.0289 20.3395C25.4785 18.6742 32.0901 14.5105 35.6375 11.9992C36.8179 8.45382 39.6809 5.67719 43.2792 4.61645C43.3383 4.59905 43.3985 4.58082 43.4603 4.5617L43.4103 4.52442L44.953 4.0642C45.9042 3.74136 47.2151 3.30335 49.2004 2.70778C51.1131 2.13396 53.5511 1.45509 55.3605 0.959589L57.8555 0.215332ZM51.3065 10.4032L50.1184 9.51869C49.0334 8.87144 47.7651 8.49958 46.4099 8.49958C42.4062 8.49958 39.1606 11.7452 39.1606 15.7488C39.1606 19.7525 42.4062 22.9981 46.4099 22.9981C50.4136 22.9981 53.6592 19.7525 53.6592 15.7488C53.6592 13.6328 52.7525 11.7285 51.3065 10.4032ZM32.8791 34.2036C33.5637 34.0022 35.1264 34.0103 35.8996 35.6534C36.6729 37.2966 35.7385 38.4323 35.1747 38.7948C35.1747 38.7948 32.3945 40.3967 31.9125 40.6071C31.4305 40.8175 29.3028 40.5829 28.5295 39.0364C27.7563 37.4899 29.0128 36.1367 29.7377 35.6534L32.8791 34.2036Z" fill="url(#paint0_linear_219_209)"/>
<circle cx="52.088" cy="15.1451" r="0.604105" fill="#EC00EA"/>
<circle cx="52.088" cy="16.5946" r="0.362463" fill="#EC00EA"/>
<path d="M37.2634 8.42008C38.9454 6.50657 40.0735 5.48724 40.6919 5.27742C35.7448 2.75965 31.8216 3.38453 30.8322 5.14697C29.8428 6.90942 29.5757 9.14582 33.8005 13.3298C41.7158 20.7572 51.2389 24.6598 53.3414 25.2892C55.4439 25.9186 61.0094 27.5552 62.2462 24.0303C63.4829 20.5054 58.4198 16.0739 58.4122 16.0993C57.9175 20.3795 57.4238 21.1855 57.4228 21.1349C58.0412 21.6384 57.8803 22.0304 57.9175 22.0161C56.8044 22.142 52.352 20.6313 45.0551 16.6029C39.2175 13.3801 35.8618 9.46916 34.9136 7.91653C35.7793 7.79064 37.2121 8.42766 37.2634 8.42008Z" fill="url(#paint1_linear_219_209)"/>
<defs>
<linearGradient id="paint0_linear_219_209" x1="48.1555" y1="12.1119" x2="39.4479" y2="22.9093" gradientUnits="userSpaceOnUse">
<stop stop-color="#EC00EA"/>
<stop offset="1" stop-color="#58007A"/>
</linearGradient>
<linearGradient id="paint1_linear_219_209" x1="30.7403" y1="5.14567" x2="62.7843" y2="26.044" gradientUnits="userSpaceOnUse">
<stop stop-color="#E98AFB"/>
<stop offset="1" stop-color="#8C6AFF"/>
</linearGradient>
</defs>
</svg>
